<svg width="32" height="18" viewBox="0 0 32 18" fill="none" xmlns="http://www.w3.org/2000/svg">
<path d="M0 10H4V14H0V10Z" fill="#74B44A"/>
<path d="M4 10H10V16H4V10Z" fill="#74B44A"/>
<path d="M12 10H16V14H12V10Z" fill="#74B44A"/>
<path d="M10 10H12V12H10V10Z" fill="#74B44A"/>
<path d="M0 14H2V16H0V14Z" fill="#74B44A"/>
<path d="M12 14H14V16H12V14Z" fill="#74B44A"/>
<path d="M8 16H10V18H8V16Z" fill="#74B44A"/>
<path d="M16 16H18V18H16V16Z" fill="#74B44A"/>
<path d="M20 16H22V18H20V16Z" fill="#74B44A"/>
<path d="M26 14H30V16H26V14Z" fill="#74B44A"/>
<path d="M16 10H24V16H16V10Z" fill="#74B44A"/>
<path d="M24 10H32V14H24V10Z" fill="#74B44A"/>
<path d="M0 0H32V10H0V0Z" fill="#97C667"/>
</svg>
