<svg width="32" height="16" viewBox="0 0 32 16" fill="none" xmlns="http://www.w3.org/2000/svg">
<path d="M0 0H32V16H0V0Z" fill="#79553A"/>
<path d="M0 0H4V4H0V0Z" fill="#74B44A"/>
<path d="M4 0H10V6H4V0Z" fill="#74B44A"/>
<path d="M12 0H16V4H12V0Z" fill="#74B44A"/>
<path d="M10 0H12V2H10V0Z" fill="#74B44A"/>
<path d="M0 4H2V6H0V4Z" fill="#74B44A"/>
<path d="M12 4H14V6H12V4Z" fill="#74B44A"/>
<path d="M8 6H10V8H8V6Z" fill="#74B44A"/>
<path d="M16 6H18V8H16V6Z" fill="#74B44A"/>
<path d="M20 6H22V8H20V6Z" fill="#74B44A"/>
<path d="M26 4H30V6H26V4Z" fill="#74B44A"/>
<path d="M16 0H24V6H16V0Z" fill="#74B44A"/>
<path d="M24 0H32V4H24V0Z" fill="#74B44A"/>
</svg>
